<?xml version="1.0" encoding="iso-8859-1"?>
<!-- Uploaded to: SVG Repo, www.svgrepo.com, Generator: SVG Repo Mixer Tools -->
<svg version="1.1" id="Layer_1" xmlns="http://www.w3.org/2000/svg" xmlns:xlink="http://www.w3.org/1999/xlink" 
	 viewBox="0 0 392.563 392.563" xml:space="preserve">
<path style="fill:#56ACE0;" d="M51.886,265.97l-4.719,16.226h37.818c6.012,0,10.925,4.848,10.925,10.925
	c0,6.012-4.848,10.925-10.925,10.925H40.831l-3.943,13.576h23.984c6.012,0,10.925,4.848,10.925,10.925
	c0,6.012-4.848,10.925-10.925,10.925H30.553l-5.107,17.455h341.786l-26.44-90.893H51.886V265.97z"/>
<rect x="54.601" y="35.699" style="fill:#FFFFFF;" width="283.539" height="208.485"/>
<g>
	<path style="fill:#194F82;" d="M392.185,364.75l-32.323-111.192V24.839c0-6.012-4.848-10.925-10.925-10.925H43.676
		c-6.012,0-10.925,4.848-10.925,10.925v228.719L0.427,364.75c-2.069,7.564,3.685,13.899,10.537,13.899h370.747
		C389.858,378.649,393.866,370.827,392.185,364.75z M25.446,356.863l5.107-17.455h30.319c6.012,0,10.925-4.848,10.925-10.925
		c0-6.012-4.913-10.925-10.99-10.925H36.823l3.943-13.576H84.92c6.012,0,10.925-4.848,10.925-10.925s-4.848-10.925-10.925-10.925
		H47.167l4.719-16.226h288.97l26.376,90.893H25.446V356.863z M54.601,35.699h283.539v208.485H54.601V35.699z"/>
	<path style="fill:#194F82;" d="M222.747,313.938H170.06c-6.012,0-10.925,4.848-10.925,10.925c0,6.012,4.848,10.925,10.925,10.925
		h52.687c6.012,0,10.925-4.848,10.925-10.925C233.607,318.851,228.759,313.938,222.747,313.938z"/>
	<path style="fill:#194F82;" d="M133.34,150.835H98.367c-6.012,0-10.925,4.848-10.925,10.925c0,6.012,4.848,10.925,10.925,10.925
		h22.497v5.236c0,6.012,4.848,10.925,10.925,10.925c6.077,0,10.925-4.848,10.925-10.925v-6.659
		c13.123-4.008,22.82-16.226,22.82-30.707c0-17.713-14.352-32.065-32.065-32.065H119.7c-5.624,0-10.279-4.655-10.279-10.279
		c0-5.624,4.655-10.279,10.279-10.279h34.974c6.012,0,10.925-4.848,10.925-10.925c0-6.012-4.848-10.925-10.925-10.925H142.65v-5.172
		c0-6.012-4.848-10.925-10.925-10.925c-6.077,0-10.925,4.848-10.925,10.925v5.172h-1.293c-17.713,0-32.065,14.352-32.065,32.065
		s14.352,32.065,32.065,32.065h13.77c5.624,0,10.279,4.655,10.279,10.279C143.619,146.18,139.029,150.835,133.34,150.835z"/>
</g>
<g>
	<path style="fill:#FFC10D;" d="M260.048,112.758c8.404,0,15.58-9.374,15.58-20.493s-7.111-20.493-15.58-20.493
		c-8.404,0-15.515,9.374-15.515,20.493C244.532,103.32,251.644,112.758,260.048,112.758z"/>
	<path style="fill:#FFC10D;" d="M295.086,164.475c0.905-8.792,1.099-17.067,0.259-19.911c-1.745-1.875-8.986-6.077-25.471-11.442
		l0,0c-3.103,0.905-6.335,1.487-9.632,1.487c-3.297,0-6.594-0.517-9.632-1.487l0,0c-16.549,5.301-23.725,9.568-25.471,11.442
		c-0.905,2.844-0.776,11.119,0.259,19.911H295.086z"/>
</g>
<g>
	<path style="fill:#194F82;" d="M313.704,132.734c-1.616-2.457-5.301-8.21-23.467-15.515c4.59-7.046,7.24-15.58,7.24-24.954
		c0-23.337-16.743-42.279-37.43-42.279c-20.687,0-37.43,18.941-37.43,42.279c0,9.374,2.715,18.036,7.24,24.954
		c-18.166,7.37-21.915,13.059-23.467,15.515c-6.335,9.826-3.685,32.065-1.616,44.412c0.905,5.236,5.43,9.051,10.731,9.051h88.954
		c5.301,0,9.826-3.814,10.731-9.051C317.389,164.863,320.039,142.56,313.704,132.734z M260.048,71.772
		c8.404,0,15.58,9.374,15.58,20.493s-7.111,20.493-15.58,20.493c-8.404,0-15.515-9.374-15.515-20.493S251.644,71.772,260.048,71.772
		z M224.88,144.499c1.745-1.875,8.986-6.077,25.471-11.442l0,0c3.103,0.905,6.335,1.487,9.632,1.487s6.594-0.517,9.632-1.487l0,0
		c16.549,5.236,23.725,9.568,25.471,11.442c0.905,2.844,0.776,11.119-0.259,19.911h-69.754
		C224.104,155.619,224.039,147.344,224.88,144.499z"/>
	<path style="fill:#194F82;" d="M167.021,204.75H85.89c-6.012,0-10.925,4.848-10.925,10.925S79.813,226.6,85.89,226.6h81.067
		c6.012,0,10.925-4.848,10.925-10.925S173.033,204.75,167.021,204.75z"/>
	<path style="fill:#194F82;" d="M300.646,204.75h-81.067c-6.012,0-10.925,4.848-10.925,10.925s4.848,10.925,10.925,10.925h81.067
		c6.012,0,10.925-4.848,10.925-10.925S306.658,204.75,300.646,204.75z"/>
</g>
</svg>